#N canvas 170 51 619 648 10;
#X declare -lib oscx;
#X obj 37 -94 init 1;
#X obj 37 -8 gemhead 80;
#X obj 37 -56 tgl 15 0 empty empty empty 17 7 0 10 -262144 -1 -1 1
1;
#X obj 159 -96 loadbang;
#X obj 37 90 pix_video;
#X msg 159 38 device 1;
#N canvas 166 121 570 420 device 0;
#X obj 204 60 cnv 20 20 20 empty \$0-open-canvas 1 4 10 0 16 -233017
-1 0;
#X obj 60 61 hradio 18 1 0 8 empty empty empty 0 -6 0 8 -225271 -1
-1 1;
#X obj 60 13 inlet;
#X msg 160 254 label \$1;
#X obj 160 232 makefilename %d;
#X obj 60 108 int;
#X obj 60 337 outlet;
#X obj 160 277 send \$0-open-canvas;
#X msg 130 170 device \$1;
#X obj 60 130 t b f;
#X obj 130 192 t a a;
#X obj 130 298 list prepend set;
#X obj 130 320 list trim;
#X obj 160 211 route device;
#X obj 130 116 loadbang;
#X msg 130 138 0;
#X connect 1 0 5 0;
#X connect 2 0 1 0;
#X connect 3 0 7 0;
#X connect 4 0 3 0;
#X connect 5 0 9 0;
#X connect 8 0 10 0;
#X connect 9 0 6 0;
#X connect 9 1 8 0;
#X connect 10 0 11 0;
#X connect 10 1 13 0;
#X connect 11 0 12 0;
#X connect 12 0 6 0;
#X connect 13 0 4 0;
#X connect 14 0 15 0;
#X connect 15 0 8 0;
#X coords 0 -1 1 1 165 20 1 60 60;
#X restore 159 -8 pd device;
#X msg 159 -56 1;
#X obj 37 124 alpha;
#X obj 37 164 rotateXYZ 0 180 0;
#X obj 37 208 separator;
#X obj 156 208 loadbang;
#X obj 72 265 bng 15 250 50 0 empty empty empty 17 7 0 10 -262144 -1
-1;
#X floatatom 72 322 5 0 0 0 - - -, f 5;
#X floatatom 133 322 5 0 0 0 - - -, f 5;
#X msg 205 322 1 0.3 0.3;
#X msg 300 322 0.5 0 0;
#X obj 37 372 pix_alpha;
#X msg 72 294 1;
#X msg 133 294 0;
#X obj 37 413 pix_blob 4;
#X obj 56 461 * -1;
#X obj 114 461 * -1;
#X obj 56 491 + 1;
#X obj 114 491 + 1;
#X obj 232 505 tgl 15 0 empty empty empty 17 7 0 10 -262144 -1 -1 1
1;
#X obj 232 616 translateXYZ;
#X obj 232 670 circle 0.2;
#X obj 183 459 vsl 15 60 0 127 0 0 empty empty empty 0 -9 0 10 -262144
-1 -1 0 1;
#X obj 56 535 vsl 15 60 0 127 0 0 empty empty X 0 -9 0 10 -262144 -1
-1 3 1;
#X obj 115 535 vsl 15 60 0 127 0 0 empty empty Y 0 -9 0 10 -262144
-1 -1 39 1;
#X obj 56 616 * 8;
#X obj 115 616 * 6;
#X obj 56 670 - 4;
#X obj 115 670 - 3;
#N canvas 352 159 450 300 sendosc 0;
#X obj 90 185 sendOSC;
#X msg 122 158 disconnect;
#X floatatom 90 24 5 0 0 0 - - -, f 5;
#X obj 362 48 import oscx;
#X msg 118 136 connect localhost 7111;
#X floatatom 16 24 5 0 0 0 - - -, f 5;
#X msg 15 53 send /X \$1;
#X obj 16 -8 r X;
#X obj 90 -9 r Y;
#X msg 90 53 send /Y \$1;
#X connect 1 0 0 0;
#X connect 2 0 9 0;
#X connect 4 0 0 0;
#X connect 5 0 6 0;
#X connect 6 0 0 0;
#X connect 7 0 5 0;
#X connect 8 0 2 0;
#X connect 9 0 0 0;
#X restore 329 82 pd sendosc;
#X msg 396 -32 0 \, destroy;
#X obj 389 -9 gemwin 12;
#X obj 152 540 s X;
#X obj 193 540 s Y;
#X obj 314 181 pix_texture;
#X obj 232 540 gemhead 85;
#X msg 391 -75 reset \, dimen 640 480 \, create \, 1;
#X obj 314 205 rectangle 4 3;
#X connect 0 0 2 0;
#X connect 1 0 4 0;
#X connect 2 0 1 0;
#X connect 3 0 7 0;
#X connect 4 0 8 0;
#X connect 5 0 4 0;
#X connect 6 0 5 0;
#X connect 7 0 6 0;
#X connect 8 0 9 0;
#X connect 9 0 10 0;
#X connect 9 0 40 0;
#X connect 10 0 17 0;
#X connect 11 0 12 0;
#X connect 12 0 18 0;
#X connect 12 0 15 0;
#X connect 12 0 16 0;
#X connect 13 0 17 1;
#X connect 14 0 17 2;
#X connect 15 0 17 3;
#X connect 16 0 17 4;
#X connect 17 0 20 0;
#X connect 18 0 13 0;
#X connect 19 0 14 0;
#X connect 20 1 21 0;
#X connect 20 2 22 0;
#X connect 20 3 28 0;
#X connect 21 0 23 0;
#X connect 22 0 24 0;
#X connect 23 0 29 0;
#X connect 23 0 38 0;
#X connect 24 0 30 0;
#X connect 24 0 39 0;
#X connect 25 0 41 0;
#X connect 26 0 27 0;
#X connect 29 0 31 0;
#X connect 30 0 32 0;
#X connect 31 0 33 0;
#X connect 32 0 34 0;
#X connect 33 0 26 1;
#X connect 34 0 26 2;
#X connect 36 0 37 0;
#X connect 40 0 43 0;
#X connect 41 0 26 0;
#X connect 42 0 37 0;
