#N canvas 0 25 1024 693 10;
#X declare -lib oscx;
#X obj 22 -268 import oscx;
#X floatatom 117 -100 5 0 0 0 - - -, f 5;
#X obj 117 -181 OSCroute /zone;
#X obj 117 -209 dumpOSC 7111;
#X obj 117 -54 select 1;
#X obj 117 -7 bng 15 250 50 0 empty empty empty 17 7 0 10 -262144 -1
-1;
#X msg 246 -147 0;
#X obj 13 -159 delay 100;
#X obj 117 70 outlet;
#X connect 1 0 4 0;
#X connect 2 0 1 0;
#X connect 3 0 2 0;
#X connect 4 0 5 0;
#X connect 5 0 7 0;
#X connect 5 0 8 0;
#X connect 6 0 1 0;
#X connect 7 0 6 0;
